<svg width="563" height="352" viewBox="0 0 563 352" fill="none" xmlns="http://www.w3.org/2000/svg">
<circle cx="278" cy="176" r="162" fill="#541919"/>
<circle cx="278" cy="176" r="141" stroke="#A6FFF4" stroke-width="16"/>
<path d="M31.2424 201.054L6.91986 175.146L86.0052 175.005L86.114 236.005L6.38314 236.147L31.3949 204.985L33.0256 202.953L31.2424 201.054Z" fill="#B1F8EF" stroke="#541919" stroke-width="6"/>
<path d="M467 172H556L527 208L556 239H467V172Z" fill="#B1F8EF" stroke="#541919" stroke-width="6"/>
<rect x="53" y="145" width="450" height="78" fill="#B1F8EF" stroke="#541919" stroke-width="6"/>
<path d="M138.27 189.873H129.28L127.571 195H122.12L131.382 170.117H136.133L145.447 195H139.996L138.27 189.873ZM130.665 185.72H136.885L133.758 176.406L130.665 185.72ZM151.258 176.509L151.412 178.577C152.722 176.97 154.493 176.167 156.727 176.167C159.108 176.167 160.743 177.107 161.631 178.987C162.93 177.107 164.782 176.167 167.186 176.167C169.191 176.167 170.683 176.754 171.663 177.927C172.643 179.089 173.133 180.844 173.133 183.191V195H168.177V183.208C168.177 182.16 167.972 181.396 167.562 180.918C167.151 180.428 166.428 180.183 165.391 180.183C163.91 180.183 162.885 180.889 162.315 182.302L162.332 195H157.393V183.225C157.393 182.154 157.182 181.379 156.761 180.901C156.339 180.422 155.621 180.183 154.607 180.183C153.206 180.183 152.192 180.764 151.565 181.926V195H146.626V176.509H151.258ZM182.156 195H177.2V176.509H182.156V195ZM176.91 171.724C176.91 170.983 177.155 170.374 177.645 169.895C178.146 169.417 178.824 169.177 179.678 169.177C180.521 169.177 181.194 169.417 181.695 169.895C182.196 170.374 182.447 170.983 182.447 171.724C182.447 172.476 182.19 173.091 181.678 173.569C181.176 174.048 180.51 174.287 179.678 174.287C178.847 174.287 178.174 174.048 177.662 173.569C177.16 173.091 176.91 172.476 176.91 171.724ZM185.523 185.618C185.523 182.781 186.195 180.496 187.54 178.765C188.895 177.033 190.718 176.167 193.008 176.167C195.036 176.167 196.614 176.862 197.742 178.252L197.947 176.509H202.425V194.385C202.425 196.003 202.055 197.41 201.314 198.606C200.585 199.802 199.554 200.714 198.221 201.34C196.888 201.967 195.327 202.28 193.538 202.28C192.182 202.28 190.861 202.007 189.573 201.46C188.286 200.924 187.312 200.229 186.651 199.375L188.838 196.367C190.069 197.746 191.561 198.435 193.316 198.435C194.626 198.435 195.646 198.082 196.375 197.375C197.104 196.681 197.469 195.689 197.469 194.402V193.411C196.329 194.698 194.831 195.342 192.974 195.342C190.752 195.342 188.952 194.476 187.574 192.744C186.207 191.001 185.523 188.694 185.523 185.823V185.618ZM190.462 185.977C190.462 187.651 190.798 188.967 191.47 189.924C192.142 190.87 193.065 191.343 194.239 191.343C195.743 191.343 196.819 190.779 197.469 189.651V181.875C196.808 180.747 195.743 180.183 194.273 180.183C193.088 180.183 192.154 180.667 191.47 181.636C190.798 182.604 190.462 184.051 190.462 185.977ZM205.467 185.583C205.467 183.749 205.82 182.114 206.526 180.679C207.233 179.243 208.247 178.132 209.568 177.346C210.901 176.56 212.445 176.167 214.2 176.167C216.695 176.167 218.729 176.93 220.301 178.457C221.884 179.984 222.767 182.057 222.95 184.678L222.984 185.942C222.984 188.779 222.192 191.058 220.608 192.778C219.025 194.487 216.9 195.342 214.234 195.342C211.568 195.342 209.437 194.487 207.842 192.778C206.259 191.069 205.467 188.745 205.467 185.806V185.583ZM210.406 185.942C210.406 187.697 210.736 189.041 211.397 189.976C212.058 190.898 213.003 191.36 214.234 191.36C215.43 191.36 216.364 190.904 217.037 189.993C217.709 189.07 218.045 187.6 218.045 185.583C218.045 183.863 217.709 182.53 217.037 181.584C216.364 180.639 215.419 180.166 214.2 180.166C212.992 180.166 212.058 180.639 211.397 181.584C210.736 182.519 210.406 183.971 210.406 185.942ZM233.973 185.618C233.973 182.735 234.616 180.439 235.904 178.73C237.203 177.021 238.974 176.167 241.219 176.167C243.019 176.167 244.506 176.839 245.679 178.184V168.75H250.635V195H246.175L245.936 193.035C244.705 194.573 243.121 195.342 241.185 195.342C239.008 195.342 237.26 194.487 235.938 192.778C234.628 191.058 233.973 188.671 233.973 185.618ZM238.912 185.977C238.912 187.708 239.214 189.036 239.817 189.958C240.421 190.881 241.299 191.343 242.449 191.343C243.976 191.343 245.053 190.699 245.679 189.412V182.114C245.064 180.827 243.999 180.183 242.483 180.183C240.102 180.183 238.912 182.114 238.912 185.977ZM262.974 195.342C260.263 195.342 258.052 194.51 256.343 192.847C254.646 191.183 253.797 188.967 253.797 186.199V185.72C253.797 183.863 254.156 182.205 254.874 180.747C255.591 179.277 256.605 178.149 257.916 177.363C259.237 176.566 260.741 176.167 262.427 176.167C264.957 176.167 266.945 176.965 268.392 178.56C269.85 180.155 270.579 182.416 270.579 185.344V187.361H258.804C258.964 188.569 259.442 189.537 260.24 190.266C261.049 190.995 262.068 191.36 263.299 191.36C265.201 191.36 266.688 190.671 267.759 189.292L270.186 192.009C269.445 193.057 268.443 193.878 267.178 194.47C265.914 195.051 264.512 195.342 262.974 195.342ZM262.41 180.166C261.43 180.166 260.633 180.496 260.018 181.157C259.414 181.818 259.026 182.764 258.855 183.994H265.726V183.601C265.703 182.507 265.407 181.664 264.837 181.072C264.267 180.468 263.458 180.166 262.41 180.166ZM301.973 186.711C301.779 189.389 300.788 191.497 299 193.035C297.222 194.573 294.875 195.342 291.958 195.342C288.768 195.342 286.256 194.271 284.422 192.129C282.599 189.976 281.688 187.025 281.688 183.276V181.755C281.688 179.363 282.109 177.255 282.952 175.432C283.795 173.609 284.997 172.214 286.558 171.245C288.13 170.265 289.953 169.775 292.027 169.775C294.898 169.775 297.211 170.544 298.965 172.083C300.72 173.621 301.734 175.78 302.007 178.56H296.88C296.755 176.953 296.305 175.791 295.53 175.073C294.767 174.344 293.599 173.979 292.027 173.979C290.318 173.979 289.036 174.595 288.182 175.825C287.339 177.044 286.906 178.941 286.883 181.516V183.396C286.883 186.085 287.287 188.05 288.096 189.292C288.917 190.534 290.204 191.155 291.958 191.155C293.542 191.155 294.721 190.796 295.496 190.078C296.282 189.349 296.732 188.227 296.846 186.711H301.973ZM309.834 178.525C311.145 176.953 312.791 176.167 314.773 176.167C318.784 176.167 320.818 178.497 320.875 183.157V195H315.936V183.293C315.936 182.234 315.708 181.453 315.252 180.952C314.796 180.439 314.039 180.183 312.979 180.183C311.532 180.183 310.484 180.741 309.834 181.858V195H304.896V168.75H309.834V178.525ZM323.831 185.583C323.831 183.749 324.184 182.114 324.891 180.679C325.597 179.243 326.611 178.132 327.933 177.346C329.266 176.56 330.809 176.167 332.564 176.167C335.059 176.167 337.093 176.93 338.665 178.457C340.249 179.984 341.132 182.057 341.314 184.678L341.348 185.942C341.348 188.779 340.556 191.058 338.973 192.778C337.389 194.487 335.264 195.342 332.598 195.342C329.932 195.342 327.802 194.487 326.207 192.778C324.623 191.069 323.831 188.745 323.831 185.806V185.583ZM328.77 185.942C328.77 187.697 329.1 189.041 329.761 189.976C330.422 190.898 331.368 191.36 332.598 191.36C333.794 191.36 334.729 190.904 335.401 189.993C336.073 189.07 336.409 187.6 336.409 185.583C336.409 183.863 336.073 182.53 335.401 181.584C334.729 180.639 333.783 180.166 332.564 180.166C331.356 180.166 330.422 180.639 329.761 181.584C329.1 182.519 328.77 183.971 328.77 185.942ZM352.081 191.36C352.992 191.36 353.733 191.109 354.302 190.608C354.872 190.107 355.168 189.44 355.191 188.608H359.822C359.811 189.862 359.469 191.012 358.797 192.061C358.125 193.097 357.202 193.906 356.028 194.487C354.866 195.057 353.579 195.342 352.166 195.342C349.523 195.342 347.438 194.504 345.911 192.83C344.384 191.143 343.621 188.819 343.621 185.857V185.532C343.621 182.684 344.379 180.411 345.894 178.713C347.409 177.016 349.489 176.167 352.132 176.167C354.445 176.167 356.296 176.828 357.686 178.149C359.087 179.46 359.799 181.208 359.822 183.396H355.191C355.168 182.439 354.872 181.664 354.302 181.072C353.733 180.468 352.981 180.166 352.046 180.166C350.896 180.166 350.024 180.588 349.432 181.431C348.851 182.262 348.56 183.618 348.56 185.498V186.011C348.56 187.913 348.851 189.281 349.432 190.112C350.013 190.944 350.896 191.36 352.081 191.36ZM361.873 185.583C361.873 183.749 362.226 182.114 362.933 180.679C363.639 179.243 364.653 178.132 365.975 177.346C367.308 176.56 368.851 176.167 370.606 176.167C373.101 176.167 375.135 176.93 376.707 178.457C378.291 179.984 379.174 182.057 379.356 184.678L379.39 185.942C379.39 188.779 378.598 191.058 377.015 192.778C375.431 194.487 373.306 195.342 370.64 195.342C367.974 195.342 365.844 194.487 364.249 192.778C362.665 191.069 361.873 188.745 361.873 185.806V185.583ZM366.812 185.942C366.812 187.697 367.142 189.041 367.803 189.976C368.464 190.898 369.41 191.36 370.64 191.36C371.836 191.36 372.771 190.904 373.443 189.993C374.115 189.07 374.451 187.6 374.451 185.583C374.451 183.863 374.115 182.53 373.443 181.584C372.771 180.639 371.825 180.166 370.606 180.166C369.398 180.166 368.464 180.639 367.803 181.584C367.142 182.519 366.812 183.971 366.812 185.942ZM387.645 195H382.688V168.75H387.645V195ZM402.444 195C402.216 194.556 402.051 194.003 401.949 193.342C400.752 194.675 399.197 195.342 397.283 195.342C395.472 195.342 393.968 194.818 392.771 193.77C391.587 192.721 390.994 191.4 390.994 189.805C390.994 187.845 391.718 186.341 393.165 185.293C394.623 184.245 396.725 183.715 399.471 183.704H401.744V182.644C401.744 181.79 401.521 181.106 401.077 180.593C400.644 180.081 399.955 179.824 399.009 179.824C398.178 179.824 397.522 180.024 397.044 180.422C396.577 180.821 396.343 181.368 396.343 182.063H391.404C391.404 180.992 391.735 180.001 392.396 179.089C393.056 178.178 393.991 177.466 395.198 176.953C396.406 176.429 397.762 176.167 399.266 176.167C401.544 176.167 403.35 176.742 404.683 177.893C406.028 179.032 406.7 180.639 406.7 182.712V190.728C406.711 192.482 406.956 193.809 407.435 194.709V195H402.444ZM398.36 191.565C399.089 191.565 399.761 191.405 400.376 191.086C400.992 190.756 401.447 190.317 401.744 189.771V186.592H399.898C397.426 186.592 396.11 187.446 395.95 189.155L395.933 189.446C395.933 190.061 396.15 190.568 396.583 190.967C397.015 191.366 397.608 191.565 398.36 191.565ZM416.407 171.963V176.509H419.568V180.132H416.407V189.36C416.407 190.044 416.538 190.534 416.8 190.83C417.062 191.126 417.563 191.274 418.304 191.274C418.851 191.274 419.335 191.235 419.756 191.155V194.897C418.788 195.194 417.791 195.342 416.766 195.342C413.302 195.342 411.536 193.593 411.468 190.095V180.132H408.768V176.509H411.468V171.963H416.407ZM430.831 195.342C428.119 195.342 425.909 194.51 424.2 192.847C422.502 191.183 421.653 188.967 421.653 186.199V185.72C421.653 183.863 422.012 182.205 422.73 180.747C423.448 179.277 424.462 178.149 425.772 177.363C427.094 176.566 428.597 176.167 430.284 176.167C432.813 176.167 434.801 176.965 436.248 178.56C437.706 180.155 438.436 182.416 438.436 185.344V187.361H426.661C426.82 188.569 427.299 189.537 428.096 190.266C428.905 190.995 429.925 191.36 431.155 191.36C433.058 191.36 434.545 190.671 435.616 189.292L438.042 192.009C437.302 193.057 436.299 193.878 435.035 194.47C433.77 195.051 432.369 195.342 430.831 195.342ZM430.267 180.166C429.287 180.166 428.489 180.496 427.874 181.157C427.27 181.818 426.883 182.764 426.712 183.994H433.582V183.601C433.559 182.507 433.263 181.664 432.693 181.072C432.124 180.468 431.315 180.166 430.267 180.166Z" fill="#541919"/>
<path d="M348.5 70L350.857 77.2553H358.486L352.314 81.7394L354.672 88.9947L348.5 84.5106L342.328 88.9947L344.686 81.7394L338.514 77.2553H346.143L348.5 70Z" fill="#E5E5E5"/>
<path d="M366.5 85L368.857 92.2553H376.486L370.314 96.7394L372.672 103.995L366.5 99.5106L360.328 103.995L362.686 96.7394L356.514 92.2553H364.143L366.5 85Z" fill="#E5E5E5"/>
<path d="M380.5 102L382.857 109.255H390.486L384.314 113.739L386.672 120.995L380.5 116.511L374.328 120.995L376.686 113.739L370.514 109.255H378.143L380.5 102Z" fill="#E5E5E5"/>
<path d="M393.5 121L395.857 128.255H403.486L397.314 132.739L399.672 139.995L393.5 135.511L387.328 139.995L389.686 132.739L383.514 128.255H391.143L393.5 121Z" fill="#E5E5E5"/>
<path d="M303.5 48L305.857 55.2553H313.486L307.314 59.7394L309.672 66.9947L303.5 62.5106L297.328 66.9947L299.686 59.7394L293.514 55.2553H301.143L303.5 48Z" fill="#E5E5E5"/>
<path d="M275.5 45L277.857 52.2553H285.486L279.314 56.7394L281.672 63.9947L275.5 59.5106L269.328 63.9947L271.686 56.7394L265.514 52.2553H273.143L275.5 45Z" fill="#E5E5E5"/>
<path d="M247.5 51L249.857 58.2553H257.486L251.314 62.7394L253.672 69.9947L247.5 65.5106L241.328 69.9947L243.686 62.7394L237.514 58.2553H245.143L247.5 51Z" fill="#E5E5E5"/>
<path d="M223.5 60L225.857 67.2553H233.486L227.314 71.7394L229.672 78.9947L223.5 74.5106L217.328 78.9947L219.686 71.7394L213.514 67.2553H221.143L223.5 60Z" fill="#E5E5E5"/>
<path d="M202.5 75L204.857 82.2553H212.486L206.314 86.7394L208.672 93.9947L202.5 89.5106L196.328 93.9947L198.686 86.7394L192.514 82.2553H200.143L202.5 75Z" fill="#E5E5E5"/>
<path d="M187.5 91L189.857 98.2553H197.486L191.314 102.739L193.672 109.995L187.5 105.511L181.328 109.995L183.686 102.739L177.514 98.2553H185.143L187.5 91Z" fill="#E5E5E5"/>
<path d="M176.5 107L178.857 114.255H186.486L180.314 118.739L182.672 125.995L176.5 121.511L170.328 125.995L172.686 118.739L166.514 114.255H174.143L176.5 107Z" fill="#E5E5E5"/>
<path d="M166.5 123L168.857 130.255H176.486L170.314 134.739L172.672 141.995L166.5 137.511L160.328 141.995L162.686 134.739L156.514 130.255H164.143L166.5 123Z" fill="#E5E5E5"/>
<path d="M327.5 59L329.857 66.2553H337.486L331.314 70.7394L333.672 77.9947L327.5 73.5106L321.328 77.9947L323.686 70.7394L317.514 66.2553H325.143L327.5 59Z" fill="#E5E5E5"/>
<path d="M206.903 278.901L204.665 271.608L197.037 271.483L203.282 267.101L201.044 259.808L207.141 264.392L213.386 260.01L210.909 267.226L217.007 271.811L209.379 271.686L206.903 278.901Z" fill="#E5E5E5"/>
<path d="M189.152 263.608L186.914 256.315L179.286 256.189L185.531 251.807L183.293 244.514L189.39 249.099L195.634 244.717L193.158 251.933L199.255 256.517L191.628 256.392L189.152 263.608Z" fill="#E5E5E5"/>
<path d="M175.433 246.38L173.195 239.087L165.567 238.962L171.811 234.58L169.574 227.287L175.671 231.871L181.915 227.489L179.439 234.705L185.536 239.29L177.909 239.165L175.433 246.38Z" fill="#E5E5E5"/>
<path d="M251.536 301.637L249.298 294.344L241.67 294.219L247.915 289.837L245.677 282.544L251.774 287.128L258.018 282.746L255.542 289.962L261.64 294.547L254.012 294.421L251.536 301.637Z" fill="#E5E5E5"/>
<path d="M279.483 305.096L277.245 297.803L269.617 297.678L275.862 293.296L273.624 286.003L279.721 290.588L285.965 286.205L283.489 293.421L289.587 298.006L281.959 297.881L279.483 305.096Z" fill="#E5E5E5"/>
<path d="M307.577 299.557L305.339 292.264L297.712 292.138L303.956 287.756L301.718 280.463L307.816 285.048L314.06 280.666L311.584 287.882L317.681 292.466L310.054 292.341L307.577 299.557Z" fill="#E5E5E5"/>
<path d="M331.722 290.952L329.484 283.659L321.856 283.534L328.101 279.152L325.863 271.858L331.96 276.443L338.205 272.061L335.728 279.277L341.826 283.862L334.198 283.736L331.722 290.952Z" fill="#E5E5E5"/>
<path d="M352.965 276.299L350.727 269.006L343.1 268.88L349.344 264.498L347.106 257.205L353.204 261.79L359.448 257.408L356.972 264.624L363.069 269.208L355.442 269.083L352.965 276.299Z" fill="#E5E5E5"/>
<path d="M368.226 260.547L365.988 253.254L358.36 253.129L364.605 248.747L362.367 241.454L368.464 246.038L374.709 241.656L372.233 248.872L378.33 253.457L370.702 253.331L368.226 260.547Z" fill="#E5E5E5"/>
<path d="M379.487 244.73L377.249 237.437L369.622 237.312L375.866 232.929L373.628 225.636L379.725 230.221L385.97 225.839L383.494 233.055L389.591 237.639L381.963 237.514L379.487 244.73Z" fill="#E5E5E5"/>
<path d="M227.72 290.244L225.482 282.951L217.854 282.826L224.098 278.444L221.86 271.151L227.958 275.736L234.202 271.354L231.726 278.569L237.823 283.154L230.196 283.029L227.72 290.244Z" fill="#E5E5E5"/>
</svg>
